<?xml version="1.0" encoding="UTF-8" standalone="no"?>
<!-- Created with Inkscape (http://www.inkscape.org/) -->

<svg
   xmlns:dc="http://purl.org/dc/elements/1.1/"
   xmlns:cc="http://creativecommons.org/ns#"
   xmlns:rdf="http://www.w3.org/1999/02/22-rdf-syntax-ns#"
   xmlns:svg="http://www.w3.org/2000/svg"
   xmlns="http://www.w3.org/2000/svg"
   xmlns:sodipodi="http://sodipodi.sourceforge.net/DTD/sodipodi-0.dtd"
   xmlns:inkscape="http://www.inkscape.org/namespaces/inkscape"
   id="svg7572"
   version="1.1"
   inkscape:version="0.48.4 r9939"
   width="459.50646"
   height="179.40601"
   xml:space="preserve"
   sodipodi:docname="area_of_parallelogram.pdf"><metadata
     id="metadata7578"><rdf:RDF><cc:Work
         rdf:about=""><dc:format>image/svg+xml</dc:format><dc:type
           rdf:resource="http://purl.org/dc/dcmitype/StillImage" /><dc:title></dc:title></cc:Work></rdf:RDF></metadata><defs
     id="defs7576"><marker
       inkscape:stockid="Arrow1Mend"
       orient="auto"
       refY="0"
       refX="0"
       id="Arrow1Mend"
       style="overflow:visible"><path
         inkscape:connector-curvature="0"
         id="path3786"
         d="M 0,0 5,-5 -12.5,0 5,5 0,0 z"
         style="fill-rule:evenodd;stroke:#000000;stroke-width:1pt"
         transform="matrix(-0.4,0,0,-0.4,-4,0)" /></marker><marker
       inkscape:stockid="Arrow1Mend"
       orient="auto"
       refY="0"
       refX="0"
       id="Arrow1Mend-4"
       style="overflow:visible"><path
         inkscape:connector-curvature="0"
         id="path3786-7"
         d="M 0,0 5,-5 -12.5,0 5,5 0,0 z"
         style="fill-rule:evenodd;stroke:#000000;stroke-width:1pt"
         transform="matrix(-0.4,0,0,-0.4,-4,0)" /></marker><marker
       inkscape:stockid="Arrow1Mend"
       orient="auto"
       refY="0"
       refX="0"
       id="Arrow1Mend-3"
       style="overflow:visible"><path
         inkscape:connector-curvature="0"
         id="path3786-3"
         d="M 0,0 5,-5 -12.5,0 5,5 0,0 z"
         style="fill-rule:evenodd;stroke:#000000;stroke-width:1pt"
         transform="matrix(-0.4,0,0,-0.4,-4,0)" /></marker><marker
       inkscape:stockid="Arrow1Mend"
       orient="auto"
       refY="0"
       refX="0"
       id="Arrow1Mend-38"
       style="overflow:visible"><path
         inkscape:connector-curvature="0"
         id="path3786-75"
         d="M 0,0 5,-5 -12.5,0 5,5 0,0 z"
         style="fill-rule:evenodd;stroke:#000000;stroke-width:1pt"
         transform="matrix(-0.4,0,0,-0.4,-4,0)" /></marker><marker
       inkscape:stockid="Arrow1Mend"
       orient="auto"
       refY="0"
       refX="0"
       id="Arrow1Mend-0"
       style="overflow:visible"><path
         inkscape:connector-curvature="0"
         id="path3786-6"
         d="M 0,0 5,-5 -12.5,0 5,5 0,0 z"
         style="fill-rule:evenodd;stroke:#000000;stroke-width:1pt"
         transform="matrix(-0.4,0,0,-0.4,-4,0)" /></marker></defs><sodipodi:namedview
     pagecolor="#ffffff"
     bordercolor="#666666"
     borderopacity="1"
     objecttolerance="10"
     gridtolerance="10"
     guidetolerance="10"
     inkscape:pageopacity="0"
     inkscape:pageshadow="2"
     inkscape:window-width="640"
     inkscape:window-height="480"
     id="namedview7574"
     showgrid="false"
     inkscape:zoom="0.92055287"
     inkscape:cx="229.75323"
     inkscape:cy="89.703003"
     inkscape:window-x="0"
     inkscape:window-y="24"
     inkscape:window-maximized="0"
     inkscape:current-layer="g7580" /><g
     id="g7580"
     inkscape:groupmode="layer"
     inkscape:label="area_of_parallelogram"
     transform="matrix(1.25,0,0,-1.25,0,179.40601)"><g
       id="g7582"><g
         id="g7584"
         transform="matrix(1,0,0,-1,0,143.52481)"><path
           d="M 9.602,110.023 272.82,109.547"
           style="fill:none;stroke:#000000;stroke-opacity:1;stroke-width:0.8;stroke-linecap:butt;stroke-linejoin:miter;stroke-miterlimit:4;stroke-dasharray:none"
           id="path7586" /></g><g
         id="g7588"
         transform="matrix(-1,-0.00181818,-0.00181818,1,0,143.52481)"><path
           d="m -264.62,-110.04 3.201,-3.201 -11.201,3.198 11.201,3.201 -3.201,-3.198 z"
           style="fill:#000000;fill-opacity:1;fill-rule:evenodd;stroke:#000000;stroke-opacity:1;stroke-width:0.799999;stroke-linecap:butt;stroke-linejoin:miter;stroke-miterlimit:4;stroke-dasharray:none"
           id="path7590" /></g><g
         id="g7592"
         transform="matrix(1,0,0,-1,0,143.52481)"><path
           d="M 9.57,109.125 95.238,12.449"
           style="fill:none;stroke:#000000;stroke-opacity:1;stroke-width:0.8;stroke-linecap:butt;stroke-linejoin:miter;stroke-miterlimit:4;stroke-dasharray:none"
           id="path7594" /></g><g
         id="g7596"
         transform="matrix(-0.886139,-1,-1,0.886139,0,143.52481)"><path
           d="m -34.313,-59.528 2.394,-2.395 -8.381,2.396 8.384,2.395 -2.397,-2.396 z"
           style="fill:#000000;fill-opacity:1;fill-rule:evenodd;stroke:#000000;stroke-opacity:1;stroke-width:0.598744;stroke-linecap:butt;stroke-linejoin:miter;stroke-miterlimit:4;stroke-dasharray:none"
           id="path7598" /></g><g
         id="g7600"
         transform="matrix(1,0,0,-1,0,143.52481)"><path
           d="M 273.539,109.066 359.207,12.395"
           style="fill:none;stroke:#000000;stroke-opacity:1;stroke-width:0.8;stroke-linecap:butt;stroke-linejoin:miter;stroke-miterlimit:4;stroke-dasharray:1.6,1.6;stroke-dashoffset:0"
           id="path7602" /></g><g
         id="g7604"
         transform="matrix(-0.886139,-1,-1,0.886139,0,143.52481)"><path
           d="m -165.369,-207.358 2.396,-2.397 -8.383,2.394 8.381,2.396 -2.394,-2.393 z"
           style="fill:#000000;fill-opacity:1;fill-rule:evenodd;stroke:#000000;stroke-opacity:1;stroke-width:0.598744;stroke-linecap:butt;stroke-linejoin:miter;stroke-miterlimit:4;stroke-dasharray:none"
           id="path7606" /></g><g
         id="g7608"
         transform="matrix(1,0,0,-1,0,143.52481)"><path
           d="M 95.746,12.059 358.965,11.578"
           style="fill:none;stroke:#000000;stroke-opacity:1;stroke-width:0.8;stroke-linecap:butt;stroke-linejoin:miter;stroke-miterlimit:4;stroke-dasharray:1.6,1.6;stroke-dashoffset:0"
           id="path7610" /></g><g
         id="g7612"
         transform="matrix(-1,-0.00181818,-0.00181818,1,0,143.52481)"><path
           d="m -350.943,-12.232 3.198,-3.201 -11.198,3.202 11.198,3.2 -3.198,-3.201 z"
           style="fill:#000000;fill-opacity:1;fill-rule:evenodd;stroke:#000000;stroke-opacity:1;stroke-width:0.799999;stroke-linecap:butt;stroke-linejoin:miter;stroke-miterlimit:4;stroke-dasharray:none"
           id="path7614" /></g><g
         id="g7616"
         transform="matrix(1,0,0,-1,0,143.52481)"><path
           d="m 95.266,11.914 0,97.633"
           style="fill:none;stroke:#000000;stroke-opacity:1;stroke-width:0.8;stroke-linecap:butt;stroke-linejoin:miter;stroke-miterlimit:4;stroke-dasharray:0.8,1.6;stroke-dashoffset:0"
           id="path7618" /></g><text
         transform="matrix(1,0,0,-1,129.24584,16.271882)"
         id="text7620"><tspan
           style="fill:#000000;fill-opacity:1;fill-rule:nonzero;stroke:none;font-family:DejaVu Sans;font-variant:normal;font-weight:bold;font-size:19.2;writing-mode:lr;-inkscape-font-specification:DejaVuSans-Bold"
           x="0"
           y="0"
           id="tspan7622">u</tspan><tspan
           style="fill:#000000;fill-opacity:1;fill-rule:nonzero;stroke:none;font-family:DejaVu Sans;font-variant:normal;font-weight:bold;font-size:19.2;writing-mode:lr;-inkscape-font-specification:DejaVuSans-Bold"
           x="-94.280928"
           y="-67.958842"
           id="tspan7624">v</tspan></text>
<text
         transform="matrix(0,1,1,0,110.31539,41.995979)"
         id="text7626"><tspan
           style="fill:#000000;fill-opacity:1;fill-rule:nonzero;stroke:none;font-family:DejaVu Sans;font-variant:normal;font-weight:bold;font-size:16;writing-mode:lr;-inkscape-font-specification:DejaVuSans-Bold"
           x="0 5.84 16.256 22.096 31.616 42.464 53.84"
           y="0"
           sodipodi:role="line"
           id="tspan7628">|v|sen(</tspan></text>
<text
         transform="matrix(0,1,1,0,110.31539,103.14798)"
         id="text7630"><tspan
           style="fill:#000000;fill-opacity:1;fill-rule:nonzero;stroke:none;font-family:DejaVu Sans;font-variant:normal;font-weight:bold;font-size:16;writing-mode:lr;-inkscape-font-specification:DejaVuSans-Bold"
           x="0"
           y="0"
           id="tspan7632">α</tspan></text>
<text
         transform="matrix(0,1,1,0,110.31539,114.13998)"
         id="text7634"><tspan
           style="fill:#000000;fill-opacity:1;fill-rule:nonzero;stroke:none;font-family:DejaVu Sans;font-variant:normal;font-weight:bold;font-size:16;writing-mode:lr;-inkscape-font-specification:DejaVuSans-Bold"
           x="0"
           y="0"
           id="tspan7636">)</tspan></text>
<text
         transform="matrix(1,0,0,-1,155.08934,82.794978)"
         id="text7638"><tspan
           style="fill:#000000;fill-opacity:1;fill-rule:nonzero;stroke:none;font-family:DejaVu Sans;font-variant:normal;font-weight:bold;font-size:19.2;writing-mode:lr;-inkscape-font-specification:DejaVuSans-Bold"
           x="0 7.008"
           y="0"
           sodipodi:role="line"
           id="tspan7640">|u</tspan></text>
<text
         transform="matrix(1,0,0,-1,175.74854,82.794978)"
         id="text7642"><tspan
           style="fill:#000000;fill-opacity:1;fill-rule:nonzero;stroke:none;font-family:DejaVu Sans;font-variant:normal;font-weight:bold;font-size:19.2;writing-mode:lr;-inkscape-font-specification:DejaVuSans-Bold"
           x="0"
           y="0"
           id="tspan7644">∧</tspan></text>
<text
         transform="matrix(1,0,0,-1,191.33894,82.794978)"
         id="text7646"><tspan
           style="fill:#000000;fill-opacity:1;fill-rule:nonzero;stroke:none;font-family:DejaVu Sans;font-variant:normal;font-weight:bold;font-size:19.2;writing-mode:lr;-inkscape-font-specification:DejaVuSans-Bold"
           x="0 12.4992"
           y="0"
           sodipodi:role="line"
           id="tspan7648">v|</tspan></text>
<path
         d="m 8,34.294 86.625,97.153 264.176,0.957 L 272.18,33.337 8,34.294 z"
         style="fill:#ffccaa;fill-opacity:0.332143;fill-rule:nonzero;stroke:none"
         id="path7650" /></g><path
       style="fill:none;stroke:#000000;stroke-width:0.65693378px;stroke-linecap:butt;stroke-linejoin:miter;stroke-opacity:1;marker-end:url(#Arrow1Mend)"
       d="m 189.64461,97.833695 13.89454,0 0,0"
       id="path7332"
       inkscape:connector-curvature="0" /><path
       style="fill:none;stroke:#000000;stroke-width:0.65693378px;stroke-linecap:butt;stroke-linejoin:miter;stroke-opacity:1;marker-end:url(#Arrow1Mend)"
       d="m 130.11517,29.547464 13.89453,0 0,0"
       id="path7332-1"
       inkscape:connector-curvature="0" /><path
       style="fill:none;stroke:#000000;stroke-width:0.65693378px;stroke-linecap:butt;stroke-linejoin:miter;stroke-opacity:1;marker-end:url(#Arrow1Mend)"
       d="m 162.26976,97.332816 13.89454,0 0,0"
       id="path7332-2"
       inkscape:connector-curvature="0" /><path
       style="fill:none;stroke:#000000;stroke-width:0.65693378px;stroke-linecap:butt;stroke-linejoin:miter;stroke-opacity:1;marker-end:url(#Arrow1Mend)"
       d="m 36.258533,99.070901 13.89454,0 0,0"
       id="path7332-7"
       inkscape:connector-curvature="0" /><path
       style="fill:none;stroke:#000000;stroke-width:0.49567306px;stroke-linecap:butt;stroke-linejoin:miter;stroke-opacity:1;marker-end:url(#Arrow1Mend)"
       d="m 99.132927,49.213546 0,7.622412 0,0"
       id="path7332-7-0"
       inkscape:connector-curvature="0" /></g></svg>