<?xml version="1.0" encoding="UTF-8" standalone="no"?>
<!-- Created with Inkscape (http://www.inkscape.org/) -->

<svg
   xmlns:dc="http://purl.org/dc/elements/1.1/"
   xmlns:cc="http://creativecommons.org/ns#"
   xmlns:rdf="http://www.w3.org/1999/02/22-rdf-syntax-ns#"
   xmlns:svg="http://www.w3.org/2000/svg"
   xmlns="http://www.w3.org/2000/svg"
   xmlns:sodipodi="http://sodipodi.sourceforge.net/DTD/sodipodi-0.dtd"
   xmlns:inkscape="http://www.inkscape.org/namespaces/inkscape"
   width="614.11438"
   height="599.81689"
   id="svg2"
   sodipodi:version="0.32"
   inkscape:version="0.48.4 r9939"
   version="1.0"
   sodipodi:docname="tetrahedron_volume.pdf"
   inkscape:output_extension="org.inkscape.output.svg.inkscape">
  <defs
     id="defs4">
    <marker
       inkscape:stockid="Arrow1Mend"
       orient="auto"
       refY="0"
       refX="0"
       id="Arrow1Mend"
       style="overflow:visible">
      <path
         id="path3948"
         d="M 0,0 5,-5 -12.5,0 5,5 0,0 z"
         style="fill-rule:evenodd;stroke:#000000;stroke-width:1pt"
         transform="matrix(-0.4,0,0,-0.4,-4,0)"
         inkscape:connector-curvature="0" />
    </marker>
    <marker
       inkscape:stockid="Dot_l"
       orient="auto"
       refY="0"
       refX="0"
       id="Dot_l"
       style="overflow:visible">
      <path
         id="path5607"
         d="m -2.5,-1 c 0,2.76 -2.24,5 -5,5 -2.76,0 -5,-2.24 -5,-5 0,-2.76 2.24,-5 5,-5 2.76,0 5,2.24 5,5 z"
         style="fill-rule:evenodd;stroke:#000000;stroke-width:1pt;marker-start:none;marker-end:none"
         transform="matrix(0.8,0,0,0.8,5.92,0.8)"
         inkscape:connector-curvature="0" />
    </marker>
    <marker
       inkscape:stockid="Tail"
       orient="auto"
       refY="0"
       refX="0"
       id="Tail"
       style="overflow:visible">
      <g
         id="g5621"
         transform="scale(-1.2,-1.2)">
        <path
           id="path5623"
           d="M -3.8048674,-3.9585227 0.54352094,0"
           style="fill:none;stroke:#000000;stroke-width:0.80000001;stroke-linecap:round;marker-start:none;marker-end:none"
           inkscape:connector-curvature="0" />
        <path
           id="path5625"
           d="M -1.2866832,-3.9585227 3.0617053,0"
           style="fill:none;stroke:#000000;stroke-width:0.80000001;stroke-linecap:round;marker-start:none;marker-end:none"
           inkscape:connector-curvature="0" />
        <path
           id="path5627"
           d="M 1.3053582,-3.9585227 5.6537466,0"
           style="fill:none;stroke:#000000;stroke-width:0.80000001;stroke-linecap:round;marker-start:none;marker-end:none"
           inkscape:connector-curvature="0" />
        <path
           id="path5629"
           d="M -3.8048674,4.1775838 0.54352094,0.21974226"
           style="fill:none;stroke:#000000;stroke-width:0.80000001;stroke-linecap:round;marker-start:none;marker-end:none"
           inkscape:connector-curvature="0" />
        <path
           id="path5631"
           d="M -1.2866832,4.1775838 3.0617053,0.21974226"
           style="fill:none;stroke:#000000;stroke-width:0.80000001;stroke-linecap:round;marker-start:none;marker-end:none"
           inkscape:connector-curvature="0" />
        <path
           id="path5633"
           d="M 1.3053582,4.1775838 5.6537466,0.21974226"
           style="fill:none;stroke:#000000;stroke-width:0.80000001;stroke-linecap:round;marker-start:none;marker-end:none"
           inkscape:connector-curvature="0" />
      </g>
    </marker>
    <marker
       inkscape:stockid="Arrow1Lstart"
       orient="auto"
       refY="0"
       refX="0"
       id="Arrow1Lstart"
       style="overflow:visible">
      <path
         id="path5669"
         d="M 0,0 5,-5 -12.5,0 5,5 0,0 z"
         style="fill-rule:evenodd;stroke:#000000;stroke-width:1pt;marker-start:none"
         transform="matrix(0.8,0,0,0.8,10,0)"
         inkscape:connector-curvature="0" />
    </marker>
    <marker
       inkscape:stockid="SquareL"
       orient="auto"
       refY="0"
       refX="0"
       id="SquareL"
       style="overflow:visible">
      <path
         id="path5598"
         d="M -5,-5 -5,5 5,5 5,-5 -5,-5 z"
         style="fill-rule:evenodd;stroke:#000000;stroke-width:1pt;marker-start:none"
         transform="scale(0.8,0.8)"
         inkscape:connector-curvature="0" />
    </marker>
    <marker
       inkscape:stockid="Arrow2Lend"
       orient="auto"
       refY="0"
       refX="0"
       id="Arrow2Lend"
       style="overflow:visible">
      <path
         id="path5648"
         style="font-size:12px;fill-rule:evenodd;stroke-width:0.625;stroke-linejoin:round"
         d="M 8.7185878,4.0337352 -2.2072895,0.01601326 8.7185884,-4.0017078 c -1.7454984,2.3720609 -1.7354408,5.6174519 -6e-7,8.035443 z"
         transform="matrix(-1.1,0,0,-1.1,-1.1,0)"
         inkscape:connector-curvature="0" />
    </marker>
    <marker
       inkscape:stockid="TriangleInL"
       orient="auto"
       refY="0"
       refX="0"
       id="TriangleInL"
       style="overflow:visible">
      <path
         id="path5580"
         d="m 5.77,0 -8.65,5 0,-10 8.65,5 z"
         style="fill-rule:evenodd;stroke:#000000;stroke-width:1pt;marker-start:none"
         transform="scale(-0.8,-0.8)"
         inkscape:connector-curvature="0" />
    </marker>
    <marker
       inkscape:stockid="TriangleInM"
       orient="auto"
       refY="0"
       refX="0"
       id="TriangleInM"
       style="overflow:visible">
      <path
         id="path5577"
         d="m 5.77,0 -8.65,5 0,-10 8.65,5 z"
         style="fill-rule:evenodd;stroke:#000000;stroke-width:1pt;marker-start:none"
         transform="scale(-0.4,-0.4)"
         inkscape:connector-curvature="0" />
    </marker>
    <marker
       inkscape:stockid="Arrow1Sstart"
       orient="auto"
       refY="0"
       refX="0"
       id="Arrow1Sstart"
       style="overflow:visible">
      <path
         id="path5657"
         d="M 0,0 5,-5 -12.5,0 5,5 0,0 z"
         style="fill-rule:evenodd;stroke:#000000;stroke-width:1pt;marker-start:none"
         transform="matrix(0.2,0,0,0.2,1.2,0)"
         inkscape:connector-curvature="0" />
    </marker>
    <marker
       inkscape:stockid="Arrow1Lend"
       orient="auto"
       refY="0"
       refX="0"
       id="Arrow1Lend"
       style="overflow:visible">
      <path
         id="path5666"
         d="M 0,0 5,-5 -12.5,0 5,5 0,0 z"
         style="fill-rule:evenodd;stroke:#000000;stroke-width:1pt;marker-start:none"
         transform="matrix(-0.8,0,0,-0.8,-10,0)"
         inkscape:connector-curvature="0" />
    </marker>
    <marker
       inkscape:stockid="Arrow2Lend"
       orient="auto"
       refY="0"
       refX="0"
       id="Arrow2Lend-3"
       style="overflow:visible">
      <path
         inkscape:connector-curvature="0"
         id="path5648-4"
         style="font-size:12px;fill-rule:evenodd;stroke-width:0.625;stroke-linejoin:round"
         d="M 8.7185878,4.0337352 -2.2072895,0.01601326 8.7185884,-4.0017078 c -1.7454984,2.3720609 -1.7354408,5.6174519 -6e-7,8.035443 z"
         transform="matrix(-1.1,0,0,-1.1,-1.1,0)" />
    </marker>
    <marker
       inkscape:stockid="Arrow2Lend"
       orient="auto"
       refY="0"
       refX="0"
       id="Arrow2Lend-1"
       style="overflow:visible">
      <path
         inkscape:connector-curvature="0"
         id="path5648-9"
         style="font-size:12px;fill-rule:evenodd;stroke-width:0.625;stroke-linejoin:round"
         d="M 8.7185878,4.0337352 -2.2072895,0.01601326 8.7185884,-4.0017078 c -1.7454984,2.3720609 -1.7354408,5.6174519 -6e-7,8.035443 z"
         transform="matrix(-1.1,0,0,-1.1,-1.1,0)" />
    </marker>
  </defs>
  <sodipodi:namedview
     id="base"
     pagecolor="#ffffff"
     bordercolor="#666666"
     borderopacity="1.0"
     gridtolerance="10000"
     guidetolerance="10"
     objecttolerance="10"
     inkscape:pageopacity="0.0"
     inkscape:pageshadow="2"
     inkscape:zoom="0.77532468"
     inkscape:cx="507.11436"
     inkscape:cy="388.24082"
     inkscape:document-units="px"
     inkscape:current-layer="layer1"
     showgrid="false"
     inkscape:grid-points="true"
     inkscape:window-width="1280"
     inkscape:window-height="776"
     inkscape:window-x="0"
     inkscape:window-y="24"
     height="770px"
     width="1001.514px"
     showguides="true"
     inkscape:guide-bbox="true"
     inkscape:window-maximized="1"
     fit-margin-top="5"
     fit-margin-left="5"
     fit-margin-right="5"
     fit-margin-bottom="5">
    <sodipodi:guide
       orientation="horizontal"
       position="6.35737,592.91688"
       id="guide2220" />
    <sodipodi:guide
       orientation="vertical"
       position="167.12806,3.24082"
       id="guide2222" />
    <sodipodi:guide
       orientation="horizontal"
       position="6.35737,192.64191"
       id="guide2228" />
    <sodipodi:guide
       orientation="vertical"
       position="246.96282,3.24082"
       id="guide2230" />
    <sodipodi:guide
       orientation="horizontal"
       position="6.35737,12.600757"
       id="guide2234" />
    <sodipodi:guide
       orientation="vertical"
       position="607.04512,3.24082"
       id="guide2236" />
  </sodipodi:namedview>
  <metadata
     id="metadata7">
    <rdf:RDF>
      <cc:Work
         rdf:about="">
        <dc:format>image/svg+xml</dc:format>
        <dc:type
           rdf:resource="http://purl.org/dc/dcmitype/StillImage" />
        <dc:title></dc:title>
      </cc:Work>
    </rdf:RDF>
  </metadata>
  <g
     inkscape:label="Layer 1"
     inkscape:groupmode="layer"
     id="layer1"
     transform="translate(-92.88563,-305.02914)">
    <path
       style="fill:none;stroke:#000000;stroke-width:4;stroke-linecap:butt;stroke-linejoin:miter;stroke-miterlimit:4;stroke-opacity:1;stroke-dasharray:none"
       d="m 100,892.36218 600,0"
       id="path1872"
       sodipodi:nodetypes="cc"
       inkscape:connector-curvature="0" />
    <path
       style="fill:none;stroke:#000000;stroke-width:4;stroke-linecap:butt;stroke-linejoin:miter;stroke-miterlimit:4;stroke-opacity:1;stroke-dasharray:16, 16;stroke-dashoffset:0"
       d="m 340,712.36218 -240,180"
       id="path1876"
       sodipodi:nodetypes="cc"
       inkscape:connector-curvature="0" />
    <path
       style="fill:none;stroke:#000000;stroke-width:4;stroke-linecap:butt;stroke-linejoin:miter;stroke-miterlimit:4;stroke-opacity:1;stroke-dasharray:none"
       d="m 260,312.36218 -160,580"
       id="path1882"
       sodipodi:nodetypes="cc"
       inkscape:connector-curvature="0" />
    <path
       id="path10193"
       d="m 255.07531,327.13903 4.18838,7.37953 -0.19945,-21.83942 -11.36846,18.64827 7.37953,-4.18838 z"
       style="fill-rule:evenodd;stroke:#000000;stroke-width:1.2pt;marker-start:none"
       inkscape:connector-curvature="0" />
    <path
       id="path10169"
       d="m 684.18076,893.10264 -6.00661,5.99338 21.0066,-5.97684 -20.99337,-6.02315 5.99338,6.00661 z"
       style="fill-rule:evenodd;stroke:#000000;stroke-width:1.2pt;marker-start:none"
       inkscape:connector-curvature="0" />
    <path
       id="path10185"
       d="m 327.0962,721.95111 -1.2021,8.3997 13.20435,-17.3967 -20.40195,7.7949 8.3997,1.2021 z"
       style="fill-rule:evenodd;stroke:#000000;stroke-width:1.2pt;marker-start:none"
       inkscape:connector-curvature="0" />
    <text
       xml:space="preserve"
       style="font-size:48px;font-style:normal;font-variant:normal;font-weight:bold;font-stretch:normal;text-align:end;line-height:125%;writing-mode:lr-tb;text-anchor:end;fill:#000000;fill-opacity:1;stroke:none;font-family:Bitstream Vera Sans"
       x="168.30736"
       y="588.87842"
       id="text6594"
       sodipodi:linespacing="125%"><tspan
         sodipodi:role="line"
         id="tspan6596"
         x="168.30736"
         y="588.87842">a</tspan></text>
    <text
       xml:space="preserve"
       style="font-size:48px;font-style:normal;font-variant:normal;font-weight:bold;font-stretch:normal;text-align:start;line-height:125%;writing-mode:lr-tb;text-anchor:start;fill:#000000;fill-opacity:1;stroke:none;font-family:Bitstream Vera Sans"
       x="406.77713"
       y="870.89514"
       id="text6598"
       sodipodi:linespacing="125%"><tspan
         sodipodi:role="line"
         id="tspan6600"
         x="406.77713"
         y="870.89514">b</tspan></text>
    <text
       xml:space="preserve"
       style="font-size:48px;font-style:normal;font-variant:normal;font-weight:bold;font-stretch:normal;text-align:end;line-height:125%;writing-mode:lr-tb;text-anchor:end;fill:#000000;fill-opacity:1;stroke:none;font-family:Bitstream Vera Sans"
       x="200.62158"
       y="799.52704"
       id="text6602"
       sodipodi:linespacing="125%"><tspan
         sodipodi:role="line"
         id="tspan6604"
         x="200.62158"
         y="799.52704">c</tspan></text>
    <g
       id="g10171">
      <path
         style="fill:#000000;fill-opacity:1;fill-rule:evenodd;stroke:none"
         d="m 258.743,317.1052 1,0 0,-4 -1,0 0,4 z m 0,8 1,0 0,-4 -1,0 0,4 z m 0,8 1,0 0,-4 -1,0 0,4 z m 0,8 1,0 0,-4 -1,0 0,4 z m 0,8 1,0 0,-4 -1,0 0,4 z m 0,8 1,0 0,-4 -1,0 0,4 z m 0,8 1,0 0,-4 -1,0 0,4 z m 0,8 1,0 0,-4 -1,0 0,4 z m 0,8 1,0 0,-4 -1,0 0,4 z m 0,8 1,0 0,-4 -1,0 0,4 z m 0,8 1,0 0,-4 -1,0 0,4 z m 0,8 1,0 0,-4 -1,0 0,4 z m 0,8 1,0 0,-4 -1,0 0,4 z m 0,8 1,0 0,-4 -1,0 0,4 z m 0,8 1,0 0,-4 -1,0 0,4 z m 0,8 1,0 0,-4 -1,0 0,4 z m 0,8 1,0 0,-4 -1,0 0,4 z m 0,8 1,0 0,-4 -1,0 0,4 z m 0,8 1,0 0,-4 -1,0 0,4 z m 0,8 1,0 0,-4 -1,0 0,4 z m 0,8 1,0 0,-4 -1,0 0,4 z m 0,8 1,0 0,-4 -1,0 0,4 z m 0,8 1,0 0,-4 -1,0 0,4 z m 0,8 1,0 0,-4 -1,0 0,4 z m 0,8 1,0 0,-4 -1,0 0,4 z m 0,8 1,0 0,-4 -1,0 0,4 z m 0,8 1,0 0,-4 -1,0 0,4 z m 0,8 1,0 0,-4 -1,0 0,4 z m 0,8 1,0 0,-4 -1,0 0,4 z m 0,8 1,0 0,-4 -1,0 0,4 z m 0,8 1,0 0,-4 -1,0 0,4 z m 0,8 1,0 0,-4 -1,0 0,4 z m 0,8 1,0 0,-4 -1,0 0,4 z m 0,8 1,0 0,-4 -1,0 0,4 z m 0,8 1,0 0,-4 -1,0 0,4 z m 0,8 1,0 0,-4 -1,0 0,4 z m 0,8 1,0 0,-4 -1,0 0,4 z m 0,8 1,0 0,-4 -1,0 0,4 z m 0,8 1,0 0,-4 -1,0 0,4 z m 0,8 1,0 0,-4 -1,0 0,4 z m 0,8 1,0 0,-4 -1,0 0,4 z m 0,8 1,0 0,-4 -1,0 0,4 z m 0,8 1,0 0,-4 -1,0 0,4 z m 0,8 1,0 0,-4 -1,0 0,4 z m 0,8 1,0 0,-4 -1,0 0,4 z m 0,8 1,0 0,-4 -1,0 0,4 z m 0,8 1,0 0,-4 -1,0 0,4 z m 0,8 1,0 0,-4 -1,0 0,4 z m 0,8 1,0 0,-4 -1,0 0,4 z m 0,8 1,0 0,-4 -1,0 0,4 z m 0,8 1,0 0,-4 -1,0 0,4 z m 0,8 1,0 0,-4 -1,0 0,4 z m 0,8 1,0 0,-4 -1,0 0,4 z m 0,8 1,0 0,-4 -1,0 0,4 z m 0,8 1,0 0,-4 -1,0 0,4 z m 0,8 1,0 0,-4 -1,0 0,4 z m 0,8 1,0 0,-4 -1,0 0,4 z m 0,8 1,0 0,-4 -1,0 0,4 z m 0,8 1,0 0,-4 -1,0 0,4 z m 0,8 1,0 0,-4 -1,0 0,4 z m 0,8 1,0 0,-4 -1,0 0,4 z m 0,8 1,0 0,-4 -1,0 0,4 z m 0,8 1,0 0,-4 -1,0 0,4 z m 0,8 1,0 0,-4 -1,0 0,4 z m 0,8 1,0 0,-4 -1,0 0,4 z m 0,8 1,0 0,-4 -1,0 0,4 z m 0,8 1,0 0,-4 -1,0 0,4 z m 0,8 1,0 0,-4 -1,0 0,4 z"
         id="path6606"
         inkscape:connector-curvature="0" />
      <path
         style="fill-rule:evenodd;stroke:#000000;stroke-width:0.8pt;marker-start:none;marker-end:none"
         d="m 259.243,857.03918 c -2.208,0 -4,-1.792 -4,-4 0,-2.208 1.792,-4 4,-4 2.208,0 4,1.792 4,4 0,2.208 -1.792,4 -4,4 z"
         id="path10177"
         inkscape:connector-curvature="0" />
    </g>
    <text
       xml:space="preserve"
       style="font-size:48px;font-style:oblique;font-variant:normal;font-weight:normal;font-stretch:normal;text-align:end;line-height:125%;writing-mode:lr-tb;text-anchor:end;fill:#000000;fill-opacity:1;stroke:none;font-family:Bitstream Vera Sans"
       x="220.61522"
       y="874.7384"
       id="text7497"
       sodipodi:linespacing="125%"><tspan
         sodipodi:role="line"
         id="tspan7499"
         x="220.61522"
         y="874.7384"
         style="font-size:48px;font-style:oblique;font-variant:normal;font-weight:normal;font-stretch:normal;text-align:end;line-height:125%;writing-mode:lr-tb;text-anchor:end;font-family:Bitstream Vera Sans">θ</tspan></text>
    <path
       sodipodi:type="arc"
       style="fill:none;stroke:#000000;stroke-width:1.0945667;stroke-miterlimit:4;stroke-opacity:1;stroke-dasharray:none;stroke-dashoffset:0"
       id="path7501"
       sodipodi:cx="0"
       sodipodi:cy="761.51398"
       sodipodi:rx="60"
       sodipodi:ry="40"
       d="m 33.132704,728.16582 c 16.57291,7.31815 26.633096,19.63345 26.863274,32.88499 L 0,761.51398 z"
       transform="matrix(1.590995,0,0,1.1804,98.63563,-5.164645)"
       sodipodi:start="5.2974038"
       sodipodi:end="6.2716059" />
    <text
       xml:space="preserve"
       style="font-size:48px;font-style:oblique;font-variant:normal;font-weight:normal;font-stretch:normal;text-align:end;line-height:125%;writing-mode:lr-tb;text-anchor:end;fill:#000000;fill-opacity:1;stroke:none;font-family:Bitstream Vera Sans"
       x="298.5759"
       y="583.21881"
       id="text8388"
       sodipodi:linespacing="125%"><tspan
         sodipodi:role="line"
         id="tspan8390"
         x="298.5759"
         y="583.21881">h</tspan></text>
    <path
       sodipodi:type="arc"
       style="fill:none;stroke:#000000;stroke-width:1.0945667;stroke-miterlimit:4;stroke-opacity:1;stroke-dasharray:none;stroke-dashoffset:0"
       id="path8060"
       sodipodi:cx="0"
       sodipodi:cy="761.51398"
       sodipodi:rx="144.00392"
       sodipodi:ry="144.00392"
       d="M -1.2699647,905.5123 C -10.6084,905.42994 -19.91668,904.43937 -29.063304,902.55459"
       transform="matrix(1.590995,0,0,1.1804,260.76369,-587.71196)"
       sodipodi:start="1.5796154"
       sodipodi:end="1.7740152"
       sodipodi:open="true" />
    <text
       xml:space="preserve"
       style="font-size:48px;font-style:oblique;font-variant:normal;font-weight:normal;font-stretch:normal;text-align:end;line-height:125%;writing-mode:lr-tb;text-anchor:end;fill:#000000;fill-opacity:1;stroke:none;font-family:Bitstream Vera Sans"
       x="249.56873"
       y="521.30579"
       id="text8062"
       sodipodi:linespacing="125%"><tspan
         sodipodi:role="line"
         id="tspan8066"
         x="249.56873"
         y="521.30579">α</tspan></text>
    <path
       style="fill:none;stroke:#000000;stroke-width:0.92076039px;stroke-linecap:butt;stroke-linejoin:miter;stroke-opacity:1;marker-end:url(#Arrow2Lend)"
       d="m 130.08744,556.73326 c 42.67304,0 42.67304,0 42.67304,0"
       id="path3093"
       inkscape:connector-curvature="0" />
    <path
       style="fill:none;stroke:#000000;stroke-width:0.92076039px;stroke-linecap:butt;stroke-linejoin:miter;stroke-opacity:1;marker-end:url(#Arrow2Lend)"
       d="m 406.95519,825.69812 c 42.67304,0 42.67304,0 42.67304,0"
       id="path3093-7"
       inkscape:connector-curvature="0" />
    <path
       style="fill:none;stroke:#000000;stroke-width:0.92076039px;stroke-linecap:butt;stroke-linejoin:miter;stroke-opacity:1;marker-end:url(#Arrow2Lend)"
       d="m 167.60377,763.93002 c 42.67304,0 42.67304,0 42.67304,0"
       id="path3093-72"
       inkscape:connector-curvature="0" />
    <path
       style="fill:none;stroke:#000000;stroke-width:3.79999995;stroke-linecap:butt;stroke-linejoin:miter;stroke-miterlimit:4;stroke-opacity:1;stroke-dasharray:none"
       d="M 600.68775,760.64006 C 160.77069,180.32394 160.77069,180.32394 160.77069,180.32394"
       id="path3181"
       inkscape:connector-curvature="0"
       transform="translate(99.243,131.6052)" />
    <path
       style="fill:none;stroke:#000000;stroke-width:3.5999999;stroke-linecap:butt;stroke-linejoin:miter;stroke-miterlimit:4;stroke-opacity:1;stroke-dasharray:14.4, 14.4;stroke-dashoffset:0"
       d="m 160.77069,180.32394 79.83476,400.27497 360.0823,180.04115"
       id="path3183"
       inkscape:connector-curvature="0"
       transform="translate(99.243,131.6052)" />
  </g>
</svg>
